<svg width="84" height="84" xmlns="http://www.w3.org/2000/svg" xmlns:xlink="http://www.w3.org/1999/xlink" xml:space="preserve" overflow="hidden"><g transform="translate(-743 -886)"><rect x="0" y="0" width="17.0002" height="47.0001" transform="matrix(-1 0 0 1 797 911)"/><path d="M822.275 956 788.062 896.5C786.75 894.137 783.337 894.137 782.025 896.5L747.725 956C746.412 958.362 748.075 961.25 750.787 961.25L785 961.25 819.213 961.25C821.925 961.25 823.588 958.362 822.275 956ZM782.375 910.5 787.625 910.5 787.625 941.125 782.375 941.125 782.375 910.5ZM785 953.375C782.55 953.375 780.625 951.45 780.625 949 780.625 946.55 782.55 944.625 785 944.625 787.45 944.625 789.375 946.55 789.375 949 789.375 951.45 787.45 953.375 785 953.375Z" fill="#FFC000"/></g></svg>